# xmcd CD database file
#
# Track frame offsets:
#	150
#	27440
#	51760
#	81385
#	109543
#	124554
#	147661
#	175415
#	265113
#
# Disc length: 3944 seconds
#
# Revision: 0
# Processed by: cddbd v1.4PL0 Copyright (c) Steve Scherf et al.
# Submitted via: CDex 1.50
#
DISCID=7c0f6609
DTITLE=MORGAN FISHER - REBALANCE
DYEAR=1999
DGENRE=New Age
TTITLE0=MORGAN FISHER - SPINBEAT #1
TTITLE1=MORGAN FISHER - CIRCLEDANCE #1
TTITLE2=MORGAN FISHER - SPINBEAT #2
TTITLE3=MORGAN FISHER - CIRCLEDANCE #2
TTITLE4=MORGAN FISHER - SPINBEAT #3
TTITLE5=MORGAN FISHER - CIRCLEDANCE #3
TTITLE6=MORGAN FISHER - SPINBEAT #4
TTITLE7=MORGAN FISHER - CIRCLEDANCE #4
TTITLE8=MORGAN FISHER - THE REBALANCE THEME
EXTD=YEAR: 1999
EXTT0=
EXTT1=
EXTT2=
EXTT3=
EXTT4=
EXTT5=
EXTT6=
EXTT7=
EXTT8=
PLAYORDER=
